<mxfile type="github" version="12.2.0" host="www.draw.io" modified="2019-11-04T11:38:08.391Z" agent="Mozilla/5.0 (Windows NT 10.0; Win64; x64) AppleWebKit/537.36 (KHTML, like Gecko) Chrome/70.0.3538.102 Safari/537.36 Edge/18.18362" etag="9TebULVvQ2hbnPpJEOGH" pages="1">
  <diagram id="wgFjlGgiPWJB2-E_jUXn" name="Page-1">
    <mxGraphModel grid="1" dx="782" dy="466" gridSize="10" guides="1" tooltips="1" connect="1" arrows="1" fold="1" page="1" pageScale="1" pageWidth="2336" pageHeight="1654" math="0" shadow="0">
      <root>
        <mxCell id="0"/>
        <mxCell id="1" parent="0"/>
        <mxCell id="krPqXdNdlhYM0oJRgE3l-1" value="" parent="1" style="rhombus;whiteSpace=wrap;html=1;" vertex="1">
          <mxGeometry as="geometry" x="20" y="20" width="80" height="80"/>
        </mxCell>
        <mxCell id="krPqXdNdlhYM0oJRgE3l-2" value="" parent="1" style="shape=parallelogram;perimeter=parallelogramPerimeter;whiteSpace=wrap;html=1;" vertex="1">
          <mxGeometry as="geometry" x="20" y="120" width="120" height="60"/>
        </mxCell>
        <mxCell id="krPqXdNdlhYM0oJRgE3l-3" value="" parent="1" style="rounded=0;whiteSpace=wrap;html=1;" vertex="1">
          <mxGeometry as="geometry" x="20" y="200" width="120" height="60"/>
        </mxCell>
      </root>
    </mxGraphModel>
  </diagram>
</mxfile>
